<?xml version="1.0" standalone="no"?>
<!DOCTYPE svg PUBLIC "-//W3C//DTD SVG 1.1//EN" "http://www.w3.org/Graphics/SVG/1.1/DTD/svg11.dtd" >
<svg>
<metadata>
Created by FontForge 20090914 at Sun May 28 18:49:15 2017
 By www-data
Copyright LewNV 2016
</metadata>
<defs>
<font id="Beefd" horiz-adv-x="5734" >
  <font-face 
    font-family="Beefd"
    font-weight="400"
    font-stretch="normal"
    units-per-em="4096"
    panose-1="0 0 4 0 0 0 0 0 0 0"
    ascent="4915"
    descent="819"
    x-height="4915"
    cap-height="4915"
    bbox="0 0 7372 6553"
    underline-thickness="204"
    underline-position="511"
    unicode-range="U+0020-U+2122"
  />
<missing-glyph horiz-adv-x="2457" 
d="M2457 697v782h-781v-782h781zM3238 1612v781h-1562v-781h1562zM2457 2521v781h-781v-781h781zM3238 3435v777h-781c-216 0 -399.333 -75.334 -550 -226c-154 -154 -231 -337.667 -231 -551h1562zM0 0v4915h4915v-4915h-4915z" />
    <glyph glyph-name=".notdef" horiz-adv-x="2457" 
d="M2457 697v782h-781v-782h781zM3238 1612v781h-1562v-781h1562zM2457 2521v781h-781v-781h781zM3238 3435v777h-781c-216 0 -399.333 -75.334 -550 -226c-154 -154 -231 -337.667 -231 -551h1562zM0 0v4915h4915v-4915h-4915z" />
    <glyph glyph-name="space" unicode=" " horiz-adv-x="5261" 
 />
    <glyph glyph-name="exclam" unicode="!" horiz-adv-x="2457" 
d="M819 819v819h819v-819h-819zM819 2457v2458h819v-2458h-819z" />
    <glyph glyph-name="quotedbl" unicode="&#x22;" horiz-adv-x="4096" 
d="M819 4096v1638h819v-1638h-819zM2457 4096v1638h819v-1638h-819z" />
    <glyph glyph-name="numbersign" unicode="#" 
d="M3276 1638v1638h-819v-1638h819zM1638 0v819h-819v819h819v1638h-819v820h819v819h819v-819h819v819h820v-819h819v-820h-819v-1638h819v-819h-819v-819h-820v819h-819v-819h-819z" />
    <glyph glyph-name="dollar" unicode="$" 
d="M2457 0v819h-1638v819h3277v-819h-820v-819h-819zM4096 1638v819h819v-819h-819zM1638 2457v819h2458v-819h-2458zM819 3276v820h819v-820h-819zM1638 4096v819h819v819h819v-819h1639v-819h-3277z" />
    <glyph glyph-name="percent" unicode="%" horiz-adv-x="8191" 
d="M1638 0v819h819v-819h-819zM5734 0v819h819v-819h-819zM2457 819v819h819v-819h-819zM4915 819v819h819v-819h-819zM6553 819v819h819v-819h-819zM819 1638v819h819v-819h-819zM3276 1638v819h820v-819h-820zM5734 1638v819h819v-819h-819zM0 2457v819h819v-819h-819z
M1638 2457v819h819v-819h-819zM4096 2457v819h819v-819h-819zM819 3276v820h819v-820h-819zM4915 3276v820h819v-820h-819z" />
    <glyph glyph-name="ampersand" unicode="&#x26;" 
d="M2457 0v819h-819v819h3277v-819h-1639v-819h-819zM819 1638v819h819v-819h-819zM1638 2457v819h1638v-819h-1638zM819 3276v820h819v-820h-819zM1638 4096v819h819v819h819v-819h1639v-819h-3277z" />
    <glyph glyph-name="quotesingle" unicode="'" horiz-adv-x="2457" 
d="M819 4096v1638h819v-1638h-819z" />
    <glyph glyph-name="parenleft" unicode="(" horiz-adv-x="3276" 
d="M1638 0v819h819v-819h-819zM819 819v4096h819v-4096h-819zM1638 4915v819h819v-819h-819z" />
    <glyph glyph-name="parenright" unicode=")" horiz-adv-x="3276" 
d="M819 0v819h819v-819h-819zM1638 819v4096h819v-4096h-819zM819 4915v819h819v-819h-819z" />
    <glyph glyph-name="asterisk" unicode="*" horiz-adv-x="4096" 
d="M1638 3276v820h-819v819h819v819h819v-819h819v-819h-819v-820h-819z" />
    <glyph glyph-name="plus" unicode="+" 
d="M2457 819v1638h-1638v819h1638v1639h819v-1639h1639v-819h-1639v-1638h-819z" />
    <glyph glyph-name="comma" unicode="," horiz-adv-x="2457" 
d="M0 0v819h819v-819h-819zM819 819v819h819v-819h-819z" />
    <glyph glyph-name="hyphen" unicode="-" 
d="M819 2457v819h4096v-819h-4096z" />
    <glyph glyph-name="period" unicode="." horiz-adv-x="2457" 
d="M819 819v819h819v-819h-819z" />
    <glyph glyph-name="slash" unicode="/" horiz-adv-x="4096" 
d="M819 819v819h819v-819h-819zM1638 1638v2458h819v-2458h-819zM2457 4096v819h819v-819h-819z" />
    <glyph glyph-name="zero" unicode="0" horiz-adv-x="4915" 
d="M1638 819v819h1638v-819h-1638zM819 1638v2458h819v-2458h-819zM3276 1638v2458h820v-2458h-820zM1638 4096v819h1638v-819h-1638z" />
    <glyph glyph-name="one" unicode="1" horiz-adv-x="3276" 
d="M1638 819v2457h-819v820h819v819h819v-4096h-819z" />
    <glyph glyph-name="two" unicode="2" horiz-adv-x="4915" 
d="M819 819v819h819v819h819v-819h1639v-819h-3277zM2457 2457v819h819v-819h-819zM819 3276v820h819v-820h-819zM3276 3276v820h820v-820h-820zM1638 4096v819h1638v-819h-1638z" />
    <glyph glyph-name="three" unicode="3" horiz-adv-x="4915" 
d="M1638 819v819h1638v-819h-1638zM819 1638v819h819v-819h-819zM3276 1638v819h820v-819h-820zM2457 2457v819h819v-819h-819zM819 3276v820h819v-820h-819zM3276 3276v820h820v-820h-820zM1638 4096v819h1638v-819h-1638z" />
    <glyph glyph-name="four" unicode="4" horiz-adv-x="4915" 
d="M819 3276v1639h819v-1639h-819zM3276 819v1638h-1638v819h1638v1639h820v-4096h-820z" />
    <glyph glyph-name="five" unicode="5" horiz-adv-x="4915" 
d="M819 819v819h2457v-819h-2457zM3276 1638v819h820v-819h-820zM819 2457v2458h3277v-819h-2458v-820h1638v-819h-2457z" />
    <glyph glyph-name="six" unicode="6" horiz-adv-x="4915" 
d="M1638 819v819h1638v-819h-1638zM3276 1638v819h820v-819h-820zM819 1638v2458h819v-820h1638v-819h-1638v-819h-819zM1638 4096v819h2458v-819h-2458z" />
    <glyph glyph-name="seven" unicode="7" horiz-adv-x="4915" 
d="M1638 819v1638h819v-1638h-819zM2457 2457v819h819v-819h-819zM3276 3276v820h-2457v819h3277v-1639h-820z" />
    <glyph glyph-name="eight" unicode="8" horiz-adv-x="4915" 
d="M1638 819v819h1638v-819h-1638zM819 1638v819h819v-819h-819zM3276 1638v819h820v-819h-820zM1638 2457v819h1638v-819h-1638zM819 3276v820h819v-820h-819zM3276 3276v820h820v-820h-820zM1638 4096v819h1638v-819h-1638z" />
    <glyph glyph-name="nine" unicode="9" horiz-adv-x="4915" 
d="M819 3276v820h819v-820h-819zM3276 819v1638h-1638v819h1638v820h-1638v819h2458v-4096h-820z" />
    <glyph glyph-name="colon" unicode=":" horiz-adv-x="2457" 
d="M819 819v819h819v-819h-819zM819 3276v820h819v-820h-819z" />
    <glyph glyph-name="semicolon" unicode=";" horiz-adv-x="2457" 
d="M0 0v819h819v-819h-819zM819 819v819h819v-819h-819zM819 3276v820h819v-820h-819z" />
    <glyph glyph-name="equal" unicode="=" 
d="M819 1638v819h4096v-819h-4096zM819 3276v820h4096v-820h-4096z" />
    <glyph glyph-name="question" unicode="?" 
d="M1638 819v819h819v-819h-819zM1638 2457v819h2458v-819h-2458zM4096 3276v820h819v-820h-819zM819 4096v819h3277v-819h-3277z" />
    <glyph glyph-name="at" unicode="@" horiz-adv-x="6553" 
d="M3276 1638v819h-819v-819h819zM0 1638v2458h819v-2458h-819zM3276 3276v820h-819v-820h819zM4915 1638v2458h819v-2458h-819zM819 819v819h819v2458h-819v819h4096v-819h-819v-2458h819v-819h-4096z" />
    <glyph glyph-name="A" unicode="A" 
d="M819 819v3277h819v-820h2458v820h819v-3277h-819v1638h-2458v-1638h-819zM1638 4096v819h2458v-819h-2458z" />
    <glyph glyph-name="B" unicode="B" 
d="M4096 1638v819h819v-819h-819zM4096 3276v820h819v-820h-819zM819 819v4096h3277v-819h-2458v-820h2458v-819h-2458v-819h2458v-819h-3277z" />
    <glyph glyph-name="C" unicode="C" 
d="M1638 819v819h3277v-819h-3277zM819 1638v2458h819v-2458h-819zM1638 4096v819h3277v-819h-3277z" />
    <glyph glyph-name="D" unicode="D" 
d="M4096 1638v2458h819v-2458h-819zM819 819v4096h3277v-819h-2458v-2458h2458v-819h-3277z" />
    <glyph glyph-name="E" unicode="E" 
d="M819 819v4096h4096v-819h-3277v-820h1638v-819h-1638v-819h3277v-819h-4096z" />
    <glyph glyph-name="F" unicode="F" 
d="M819 819v4096h4096v-819h-3277v-820h1638v-819h-1638v-1638h-819z" />
    <glyph glyph-name="G" unicode="G" 
d="M1638 819v819h2458v819h-820v819h1639v-2457h-3277zM819 1638v2458h819v-2458h-819zM1638 4096v819h3277v-819h-3277z" />
    <glyph glyph-name="H" unicode="H" 
d="M819 819v4096h819v-1639h2458v1639h819v-4096h-819v1638h-2458v-1638h-819z" />
    <glyph glyph-name="I" unicode="I" 
d="M819 819v819h1638v2458h-1638v819h4096v-819h-1639v-2458h1639v-819h-4096z" />
    <glyph glyph-name="J" unicode="J" 
d="M819 819v1638h819v-819h819v-819h-1638zM2457 1638v2458h-1638v819h4096v-819h-1639v-2458h-819z" />
    <glyph glyph-name="K" unicode="K" 
d="M4096 819v819h819v-819h-819zM3276 1638v819h820v-819h-820zM3276 3276v820h820v-820h-820zM819 819v4096h819v-1639h1638v-819h-1638v-1638h-819zM4096 4096v819h819v-819h-819z" />
    <glyph glyph-name="L" unicode="L" 
d="M819 819v4096h819v-3277h3277v-819h-4096z" />
    <glyph glyph-name="M" unicode="M" 
d="M2457 2457v819h819v-819h-819zM819 819v4096h819v-819h819v-820h-819v-2457h-819zM4096 819v2457h-820v820h820v819h819v-4096h-819z" />
    <glyph glyph-name="N" unicode="N" 
d="M2457 2457v819h819v-819h-819zM819 819v4096h819v-819h819v-820h-819v-2457h-819zM4096 819v819h-820v819h820v2458h819v-4096h-819z" />
    <glyph glyph-name="O" unicode="O" 
d="M1638 819v819h2458v-819h-2458zM819 1638v2458h819v-2458h-819zM4096 1638v2458h819v-2458h-819zM1638 4096v819h2458v-819h-2458z" />
    <glyph glyph-name="P" unicode="P" 
d="M4096 3276v820h819v-820h-819zM819 819v4096h3277v-819h-2458v-820h2458v-819h-2458v-1638h-819z" />
    <glyph glyph-name="Q" unicode="Q" horiz-adv-x="6553" 
d="M819 1638v2458h819v-2458h-819zM1638 819v819h2458v2458h819v-2458h819v-819h-4096zM1638 4096v819h2458v-819h-2458z" />
    <glyph glyph-name="R" unicode="R" 
d="M4096 819v1638h819v-1638h-819zM4096 3276v820h819v-820h-819zM819 819v4096h3277v-819h-2458v-820h2458v-819h-2458v-1638h-819z" />
    <glyph glyph-name="S" unicode="S" 
d="M819 819v819h3277v-819h-3277zM4096 1638v819h819v-819h-819zM1638 2457v819h2458v-819h-2458zM819 3276v820h819v-820h-819zM1638 4096v819h3277v-819h-3277z" />
    <glyph glyph-name="T" unicode="T" 
d="M2457 819v3277h-1638v819h4096v-819h-1639v-3277h-819z" />
    <glyph glyph-name="U" unicode="U" 
d="M1638 819v819h2458v-819h-2458zM819 1638v3277h819v-3277h-819zM4096 1638v3277h819v-3277h-819z" />
    <glyph glyph-name="V" unicode="V" 
d="M2457 819v819h819v-819h-819zM1638 1638v819h819v-819h-819zM3276 1638v819h820v-819h-820zM819 2457v2458h819v-2458h-819zM4096 2457v2458h819v-2458h-819z" />
    <glyph glyph-name="W" unicode="W" horiz-adv-x="7372" 
d="M2457 819v819h819v-819h-819zM4096 819v819h819v-819h-819zM1638 1638v819h819v-819h-819zM4915 1638v819h819v-819h-819zM3276 1638v1638h820v-1638h-820zM819 2457v2458h819v-2458h-819zM5734 2457v2458h819v-2458h-819z" />
    <glyph glyph-name="X" unicode="X" 
d="M819 819v1638h819v-1638h-819zM4096 819v1638h819v-1638h-819zM1638 2457v819h2458v-819h-2458zM819 3276v1639h819v-1639h-819zM4096 3276v1639h819v-1639h-819z" />
    <glyph glyph-name="Y" unicode="Y" 
d="M2457 819v1638h-819v819h2458v-819h-820v-1638h-819zM819 3276v1639h819v-1639h-819zM4096 3276v1639h819v-1639h-819z" />
    <glyph glyph-name="Z" unicode="Z" 
d="M819 819v819h819v819h819v-819h2458v-819h-4096zM2457 2457v819h819v-819h-819zM3276 3276v820h-2457v819h4096v-819h-819v-820h-820z" />
    <glyph glyph-name="bracketleft" unicode="[" horiz-adv-x="3276" 
d="M819 0v5734h1638v-819h-819v-4096h819v-819h-1638z" />
    <glyph glyph-name="backslash" unicode="\" horiz-adv-x="4096" 
d="M2457 819v819h819v-819h-819zM1638 1638v2458h819v-2458h-819zM819 4096v819h819v-819h-819z" />
    <glyph glyph-name="bracketright" unicode="]" horiz-adv-x="3276" 
d="M819 0v819h819v4096h-819v819h1638v-5734h-1638z" />
    <glyph glyph-name="asciicircum" unicode="^" horiz-adv-x="4096" 
d="M819 4096v819h819v-819h-819zM2457 4096v819h819v-819h-819zM1638 4915v819h819v-819h-819z" />
    <glyph glyph-name="underscore" unicode="_" 
d="M819 0v819h4096v-819h-4096z" />
    <glyph glyph-name="grave" unicode="`" horiz-adv-x="3276" 
d="M1638 4096v819h819v-819h-819zM819 4915v819h819v-819h-819z" />
    <glyph glyph-name="a" unicode="a" 
d="M819 819v3277h819v-820h2458v820h819v-3277h-819v1638h-2458v-1638h-819zM1638 4096v819h2458v-819h-2458z" />
    <glyph glyph-name="b" unicode="b" 
d="M4096 1638v819h819v-819h-819zM4096 3276v820h819v-820h-819zM819 819v4096h3277v-819h-2458v-820h2458v-819h-2458v-819h2458v-819h-3277z" />
    <glyph glyph-name="c" unicode="c" 
d="M1638 819v819h3277v-819h-3277zM819 1638v2458h819v-2458h-819zM1638 4096v819h3277v-819h-3277z" />
    <glyph glyph-name="d" unicode="d" 
d="M4096 1638v2458h819v-2458h-819zM819 819v4096h3277v-819h-2458v-2458h2458v-819h-3277z" />
    <glyph glyph-name="e" unicode="e" 
d="M819 819v4096h4096v-819h-3277v-820h1638v-819h-1638v-819h3277v-819h-4096z" />
    <glyph glyph-name="f" unicode="f" 
d="M819 819v4096h4096v-819h-3277v-820h1638v-819h-1638v-1638h-819z" />
    <glyph glyph-name="g" unicode="g" 
d="M1638 819v819h2458v819h-820v819h1639v-2457h-3277zM819 1638v2458h819v-2458h-819zM1638 4096v819h3277v-819h-3277z" />
    <glyph glyph-name="h" unicode="h" 
d="M819 819v4096h819v-1639h2458v1639h819v-4096h-819v1638h-2458v-1638h-819z" />
    <glyph glyph-name="i" unicode="i" 
d="M819 819v819h1638v2458h-1638v819h4096v-819h-1639v-2458h1639v-819h-4096z" />
    <glyph glyph-name="j" unicode="j" 
d="M819 819v1638h819v-819h819v-819h-1638zM2457 1638v2458h-1638v819h4096v-819h-1639v-2458h-819z" />
    <glyph glyph-name="k" unicode="k" 
d="M4096 819v819h819v-819h-819zM3276 1638v819h820v-819h-820zM3276 3276v820h820v-820h-820zM819 819v4096h819v-1639h1638v-819h-1638v-1638h-819zM4096 4096v819h819v-819h-819z" />
    <glyph glyph-name="l" unicode="l" 
d="M819 819v4096h819v-3277h3277v-819h-4096z" />
    <glyph glyph-name="m" unicode="m" 
d="M2457 2457v819h819v-819h-819zM819 819v4096h819v-819h819v-820h-819v-2457h-819zM4096 819v2457h-820v820h820v819h819v-4096h-819z" />
    <glyph glyph-name="n" unicode="n" 
d="M2457 2457v819h819v-819h-819zM819 819v4096h819v-819h819v-820h-819v-2457h-819zM4096 819v819h-820v819h820v2458h819v-4096h-819z" />
    <glyph glyph-name="o" unicode="o" 
d="M1638 819v819h2458v-819h-2458zM819 1638v2458h819v-2458h-819zM4096 1638v2458h819v-2458h-819zM1638 4096v819h2458v-819h-2458z" />
    <glyph glyph-name="p" unicode="p" 
d="M4096 3276v820h819v-820h-819zM819 819v4096h3277v-819h-2458v-820h2458v-819h-2458v-1638h-819z" />
    <glyph glyph-name="q" unicode="q" horiz-adv-x="6553" 
d="M819 1638v2458h819v-2458h-819zM1638 819v819h2458v2458h819v-2458h819v-819h-4096zM1638 4096v819h2458v-819h-2458z" />
    <glyph glyph-name="r" unicode="r" 
d="M4096 819v1638h819v-1638h-819zM4096 3276v820h819v-820h-819zM819 819v4096h3277v-819h-2458v-820h2458v-819h-2458v-1638h-819z" />
    <glyph glyph-name="s" unicode="s" 
d="M819 819v819h3277v-819h-3277zM4096 1638v819h819v-819h-819zM1638 2457v819h2458v-819h-2458zM819 3276v820h819v-820h-819zM1638 4096v819h3277v-819h-3277z" />
    <glyph glyph-name="t" unicode="t" 
d="M2457 819v3277h-1638v819h4096v-819h-1639v-3277h-819z" />
    <glyph glyph-name="u" unicode="u" 
d="M1638 819v819h2458v-819h-2458zM819 1638v3277h819v-3277h-819zM4096 1638v3277h819v-3277h-819z" />
    <glyph glyph-name="v" unicode="v" 
d="M2457 819v819h819v-819h-819zM1638 1638v819h819v-819h-819zM3276 1638v819h820v-819h-820zM819 2457v2458h819v-2458h-819zM4096 2457v2458h819v-2458h-819z" />
    <glyph glyph-name="w" unicode="w" horiz-adv-x="7372" 
d="M2457 819v819h819v-819h-819zM4096 819v819h819v-819h-819zM1638 1638v819h819v-819h-819zM4915 1638v819h819v-819h-819zM3276 1638v1638h820v-1638h-820zM819 2457v2458h819v-2458h-819zM5734 2457v2458h819v-2458h-819z" />
    <glyph glyph-name="x" unicode="x" 
d="M819 819v1638h819v-1638h-819zM4096 819v1638h819v-1638h-819zM1638 2457v819h2458v-819h-2458zM819 3276v1639h819v-1639h-819zM4096 3276v1639h819v-1639h-819z" />
    <glyph glyph-name="y" unicode="y" 
d="M2457 819v1638h-819v819h2458v-819h-820v-1638h-819zM819 3276v1639h819v-1639h-819zM4096 3276v1639h819v-1639h-819z" />
    <glyph glyph-name="z" unicode="z" 
d="M819 819v819h819v819h819v-819h2458v-819h-4096zM2457 2457v819h819v-819h-819zM3276 3276v820h-2457v819h4096v-819h-819v-820h-820z" />
    <glyph glyph-name="braceleft" unicode="{" horiz-adv-x="3276" 
d="M1638 0v819h819v-819h-819zM819 819v1638h819v-1638h-819zM1638 2457v819h819v-819h-819zM819 3276v1639h819v-1639h-819zM1638 4915v819h819v-819h-819z" />
    <glyph glyph-name="braceright" unicode="}" horiz-adv-x="3276" 
d="M819 0v819h819v-819h-819zM1638 819v1638h819v-1638h-819zM819 2457v819h819v-819h-819zM1638 3276v1639h819v-1639h-819zM819 4915v819h819v-819h-819z" />
    <glyph glyph-name="asciitilde" unicode="~" horiz-adv-x="4915" 
d="M819 1638v819h819v-819h-819zM2457 1638v819h819v-819h-819zM1638 2457v819h819v-819h-819zM3276 2457v819h820v-819h-820z" />
    <glyph glyph-name="cent" unicode="&#xa2;" horiz-adv-x="4096" 
d="M1638 819v819h-819v3277h819v819h819v-819h819v-819h-1638v-1639h1638v-819h-819v-819h-819z" />
    <glyph glyph-name="sterling" unicode="&#xa3;" 
d="M819 819v2457h-819v820h819v819h819v-819h1638v-820h-1638v-1638h3277v-819h-4096zM4096 4096v819h819v-819h-819zM1638 4915v819h2458v-819h-2458z" />
    <glyph glyph-name="yen" unicode="&#xa5;" 
d="M2457 819v819h-819v819h819v819h-819v820h2458v-820h-820v-819h820v-819h-820v-819h-819zM819 4096v1638h819v-1638h-819zM4096 4096v1638h819v-1638h-819z" />
    <glyph glyph-name="brokenbar" unicode="&#xa6;" horiz-adv-x="2457" 
d="M819 0v2457h819v-2457h-819zM819 4096v2457h819v-2457h-819z" />
    <glyph glyph-name="copyright" unicode="&#xa9;" horiz-adv-x="7372" 
d="M1638 819v819h1638v819h1639v-819h819v-819h-4096zM2457 2457v1639h819v-1639h-819zM819 1638v3277h819v-3277h-819zM5734 1638v3277h819v-3277h-819zM3276 4096v819h-1638v819h4096v-819h-819v-819h-1639z" />
    <glyph glyph-name="logicalnot" unicode="&#xac;" 
d="M4096 1638v1638h-3277v820h4096v-2458h-819z" />
    <glyph glyph-name="registered" unicode="&#xae;" horiz-adv-x="7372" 
d="M4096 3276v820h819v-820h-819zM819 1638v3277h819v-3277h-819zM5734 1638v3277h819v-3277h-819zM1638 819v819h819v3277h-819v819h4096v-819h-1638v-819h-820v-820h820v-819h-820v-819h820v819h819v-819h819v-819h-4096z" />
    <glyph glyph-name="plusminus" unicode="&#xb1;" 
d="M819 819v819h1638v1638h-1638v820h1638v1638h819v-1638h1639v-820h-1639v-1638h1639v-819h-4096z" />
    <glyph glyph-name="paragraph" unicode="&#xb6;" 
d="M2457 819v2457h-819v820h-819v819h819v819h3277v-4915h-819v4096h-820v-4096h-819z" />
    <glyph glyph-name="uni00B9" unicode="&#xb9;" horiz-adv-x="3276" 
d="M1638 3276v1639h-819v819h819v819h819v-3277h-819z" />
    <glyph glyph-name="multiply" unicode="&#xd7;" 
d="M819 819v1638h819v-1638h-819zM4096 819v1638h819v-1638h-819zM1638 2457v819h2458v-819h-2458zM819 3276v1639h819v-1639h-819zM4096 3276v1639h819v-1639h-819z" />
    <glyph glyph-name="divide" unicode="&#xf7;" 
d="M2457 819v819h819v-819h-819zM819 2457v819h4096v-819h-4096zM2457 4096v819h819v-819h-819z" />
    <glyph glyph-name="emdash" unicode="&#x2014;" horiz-adv-x="8191" 
d="M819 2457v819h6553v-819h-6553z" />
    <glyph glyph-name="dagger" unicode="&#x2020;" horiz-adv-x="4096" 
d="M1638 819v3277h-819v819h819v819h819v-819h819v-819h-819v-3277h-819z" />
    <glyph glyph-name="bullet" unicode="&#x2022;" horiz-adv-x="3276" 
d="M819 2457v1639h1638v-1639h-1638z" />
    <glyph glyph-name="ellipsis" unicode="&#x2026;" 
d="M819 819v819h819v-819h-819zM2457 819v819h819v-819h-819zM4096 819v819h819v-819h-819z" />
    <glyph glyph-name="Euro" unicode="&#x20ac;" 
d="M1638 819v819h3277v-819h-3277zM819 1638v819h-819v1639h819v819h819v-819h1638v-1639h-1638v-819h-819zM1638 4915v819h3277v-819h-3277z" />
    <glyph glyph-name="trademark" unicode="&#x2122;" horiz-adv-x="8191" 
d="M3276 3276v1639h820v-1639h-820zM4915 4096v819h819v-819h-819zM6553 3276v1639h819v-1639h-819zM1638 3276v1639h-819v819h2457v-819h-819v-1639h-819zM4096 4915v819h819v-819h-819zM5734 4915v819h819v-819h-819z" />
    <glyph glyph-name="glyph1" horiz-adv-x="0" 
 />
    <glyph glyph-name="glyph2" horiz-adv-x="5261" 
 />
  </font>
</defs>
</svg>
